<?xml version="1.0" encoding="UTF-8" standalone="no"?>
<svg
   xmlns:dc="http://purl.org/dc/elements/1.1/"
   xmlns:cc="http://creativecommons.org/ns#"
   xmlns:rdf="http://www.w3.org/1999/02/22-rdf-syntax-ns#"
   xmlns:svg="http://www.w3.org/2000/svg"
   xmlns="http://www.w3.org/2000/svg"
   xmlns:sodipodi="http://sodipodi.sourceforge.net/DTD/sodipodi-0.dtd"
   xmlns:inkscape="http://www.inkscape.org/namespaces/inkscape"
   width="48"
   height="48"
   viewBox="0 0 12.699999 12.7"
   version="1.1"
   id="svg8"
   inkscape:version="1.0.2 (e86c870879, 2021-01-15)"
   sodipodi:docname="com.github.casasfernando.wingpanel-indicator-airpods.svg">
  <title
     id="title904">com.github.casasfernando.wingpanel-indicator-airpods</title>
  <defs
     id="defs2">
    <filter
       style="color-interpolation-filters:sRGB"
       inkscape:label="Drop Shadow"
       id="filter884">
      <feFlood
         flood-opacity="0.498039"
         flood-color="rgb(0,0,0)"
         result="flood"
         id="feFlood874" />
      <feComposite
         in="flood"
         in2="SourceGraphic"
         operator="in"
         result="composite1"
         id="feComposite876" />
      <feGaussianBlur
         in="composite1"
         stdDeviation="3"
         result="blur"
         id="feGaussianBlur878" />
      <feOffset
         dx="6"
         dy="6"
         result="offset"
         id="feOffset880" />
      <feComposite
         in="SourceGraphic"
         in2="offset"
         operator="over"
         result="composite2"
         id="feComposite882" />
    </filter>
    <filter
       style="color-interpolation-filters:sRGB"
       inkscape:label="Drop Shadow"
       id="filter2240">
      <feColorMatrix
         values="1 0 0 0 0 0 1 0 0 0 0 0 1 0 0 0 0 0 0.85 0"
         result="color"
         in="SourceGraphic"
         id="feColorMatrix2228" />
      <feGaussianBlur
         in="SourceAlpha"
         stdDeviation="6"
         result="blur"
         id="feGaussianBlur2230" />
      <feSpecularLighting
         in="blur"
         specularExponent="25"
         specularConstant="0.89999998"
         surfaceScale="5"
         lighting-color="#ffffff"
         result="specular"
         id="feSpecularLighting2234">
        <feDistantLight
           elevation="60"
           azimuth="225"
           id="feDistantLight2232" />
      </feSpecularLighting>
      <feComposite
         in="specular"
         in2="SourceGraphic"
         k3="1"
         k2="1"
         operator="arithmetic"
         result="composite1"
         id="feComposite2236"
         k1="0"
         k4="0" />
      <feComposite
         in="composite1"
         in2="color"
         operator="atop"
         result="fbSourceGraphic"
         id="feComposite2238" />
      <feColorMatrix
         result="fbSourceGraphicAlpha"
         in="fbSourceGraphic"
         values="0 0 0 -1 0 0 0 0 -1 0 0 0 0 -1 0 0 0 0 1 0"
         id="feColorMatrix2242" />
      <feFlood
         id="feFlood2244"
         flood-opacity="0.498039"
         flood-color="rgb(0,0,0)"
         result="flood"
         in="fbSourceGraphic" />
      <feComposite
         in2="fbSourceGraphic"
         id="feComposite2246"
         in="flood"
         operator="in"
         result="composite1" />
      <feGaussianBlur
         id="feGaussianBlur2248"
         in="composite1"
         stdDeviation="3"
         result="blur" />
      <feOffset
         id="feOffset2250"
         dx="6"
         dy="6"
         result="offset" />
      <feComposite
         in2="offset"
         id="feComposite2252"
         in="fbSourceGraphic"
         operator="over"
         result="composite2" />
    </filter>
  </defs>
  <sodipodi:namedview
     id="base"
     pagecolor="#ffffff"
     bordercolor="#666666"
     borderopacity="1.0"
     inkscape:pageopacity="0.0"
     inkscape:pageshadow="2"
     inkscape:zoom="1.4254587"
     inkscape:cx="182.60177"
     inkscape:cy="100.42024"
     inkscape:document-units="px"
     inkscape:current-layer="layer1"
     inkscape:document-rotation="0"
     showgrid="false"
     units="px"
     showguides="true"
     inkscape:window-width="1254"
     inkscape:window-height="801"
     inkscape:window-x="160"
     inkscape:window-y="161"
     inkscape:window-maximized="0" />
  <metadata
     id="metadata5">
    <rdf:RDF>
      <cc:Work
         rdf:about="">
        <dc:format>image/svg+xml</dc:format>
        <dc:type
           rdf:resource="http://purl.org/dc/dcmitype/StillImage" />
        <dc:title>com.github.casasfernando.wingpanel-indicator-airpods</dc:title>
        <cc:license
           rdf:resource="http://creativecommons.org/licenses/by-nc-sa/4.0/" />
        <dc:creator>
          <cc:Agent>
            <dc:title>Fernando Casas Schössow</dc:title>
          </cc:Agent>
        </dc:creator>
        <dc:publisher>
          <cc:Agent>
            <dc:title>Fernando Casas Schössow</dc:title>
          </cc:Agent>
        </dc:publisher>
        <dc:date>08/05/2021</dc:date>
      </cc:Work>
      <cc:License
         rdf:about="http://creativecommons.org/licenses/by-nc-sa/4.0/">
        <cc:permits
           rdf:resource="http://creativecommons.org/ns#Reproduction" />
        <cc:permits
           rdf:resource="http://creativecommons.org/ns#Distribution" />
        <cc:requires
           rdf:resource="http://creativecommons.org/ns#Notice" />
        <cc:requires
           rdf:resource="http://creativecommons.org/ns#Attribution" />
        <cc:prohibits
           rdf:resource="http://creativecommons.org/ns#CommercialUse" />
        <cc:permits
           rdf:resource="http://creativecommons.org/ns#DerivativeWorks" />
        <cc:requires
           rdf:resource="http://creativecommons.org/ns#ShareAlike" />
      </cc:License>
    </rdf:RDF>
  </metadata>
  <g
     inkscape:label="Layer 1"
     inkscape:groupmode="layer"
     id="layer1">
    <g
       id="g872"
       transform="matrix(0.08333333,0,0,0.08333333,0.70555528,0.83784746)"
       style="filter:url(#filter2240)">
      <path
         id="rect837"
         style="fill:#eeeeee;fill-opacity:1;fill-rule:evenodd;stroke-width:1.74386;stroke-miterlimit:4;stroke-dasharray:none"
         d="m 218.35547,142.11523 a 82.044885,73.8404 0 0 1 -43.87695,22.27539 v 14.75196 h 49.22656 v -37.02735 z m 69.93945,0 v 37.02735 h 49.22656 V 164.39062 A 82.044885,73.8404 0 0 1 293.64453,142.11523 Z M 55.427734,166.85742 V 367.42188 C 55.427734,435.32966 110.09803,490 178.00586,490 h 155.98828 c 67.90782,0 122.57813,-54.67034 122.57813,-122.57812 V 166.85742 h -78 c -0.008,12.34706 -9.94998,22.28516 -22.29883,22.28516 h -18.66016 -0.0918 -49.22656 -0.0801 -64.43554 -0.0742 -49.22656 -0.0996 -18.65235 c -12.34885,0 -22.29144,-9.9381 -22.29883,-22.28516 z m 200.441406,67.28516 a 21.858189,21.858189 0 0 1 0.13086,0 A 21.858189,21.858189 0 0 1 277.85742,256 21.858189,21.858189 0 0 1 256,277.85742 21.858189,21.858189 0 0 1 234.14258,256 21.858189,21.858189 0 0 1 255.86914,234.14258 Z"
         transform="scale(0.26458333)" />
      <path
         id="path1428-3"
         style="fill:#eeeeee;fill-opacity:1;stroke-width:7.60622;stroke-linecap:round;stroke-linejoin:round"
         d="m 353.80664,10 a 82.044885,73.8404 0 0 0 -81.90625,73.839844 82.044885,73.8404 0 0 0 82.04492,73.841796 82.044885,73.8404 0 0 0 64.85547,-28.61914 V 38.617188 A 82.044885,73.8404 0 0 0 353.94531,10 a 82.044885,73.8404 0 0 0 -0.13867,0 z m 37.05859,41.023438 c 6.81794,0 12.30664,5.488709 12.30665,12.30664 v 41.021482 c 0,6.81793 -5.48871,12.30664 -12.30665,12.30664 -6.81793,0 -12.30664,-5.48871 -12.30664,-12.30664 V 63.330078 c 0,-6.817931 5.48871,-12.306641 12.30664,-12.30664 z m -69.73828,24.613281 h 16.40821 c 4.54528,0 8.20507,3.657838 8.20507,8.203125 0,4.545286 -3.65979,8.205078 -8.20507,8.205078 h -16.40821 c -4.54528,0 -8.20509,-3.659792 -8.20507,-8.205078 0,-4.545287 3.65979,-8.203125 8.20507,-8.203125 z"
         transform="scale(0.26458333)" />
      <path
         id="path1428-3-2"
         style="fill:#eeeeee;fill-opacity:1;stroke-width:7.60622;stroke-linecap:round;stroke-linejoin:round"
         d="M 158.05469,10 A 82.044885,73.8404 0 0 0 93.199219,38.617188 V 129.0625 A 82.044885,73.8404 0 0 0 158.05469,157.68164 82.044885,73.8404 0 0 0 240.09961,83.839844 82.044885,73.8404 0 0 0 158.19336,10 a 82.044885,73.8404 0 0 0 -0.13867,0 z m -36.91992,41.023438 c 6.81793,-10e-7 12.30664,5.488709 12.30664,12.30664 v 41.021482 c 0,6.81793 -5.48871,12.30664 -12.30664,12.30664 -6.81794,0 -12.30665,-5.48871 -12.30665,-12.30664 V 63.330078 c 1e-5,-6.817931 5.48871,-12.306641 12.30665,-12.30664 z m 53.33007,24.613281 h 16.40821 c 4.54528,0 8.20507,3.657838 8.20507,8.203125 0,4.545286 -3.65979,8.205078 -8.20507,8.205078 h -16.40821 c -4.54528,0 -8.20507,-3.659792 -8.20507,-8.205078 0,-4.545287 3.65979,-8.203125 8.20507,-8.203125 z"
         transform="scale(0.26458333)" />
    </g>
  </g>
</svg>
