<?xml version="1.0" encoding="UTF-8" standalone="no"?>
<svg
   xmlns:dc="http://purl.org/dc/elements/1.1/"
   xmlns:cc="http://creativecommons.org/ns#"
   xmlns:rdf="http://www.w3.org/1999/02/22-rdf-syntax-ns#"
   xmlns:svg="http://www.w3.org/2000/svg"
   xmlns="http://www.w3.org/2000/svg"
   xmlns:sodipodi="http://sodipodi.sourceforge.net/DTD/sodipodi-0.dtd"
   xmlns:inkscape="http://www.inkscape.org/namespaces/inkscape"
   width="512"
   height="512"
   viewBox="0 0 135.46666 135.46667"
   version="1.1"
   id="svg841"
   inkscape:version="1.0.2 (e86c870879, 2021-01-15)"
   sodipodi:docname="airpods-disconnected-symbolic.svg">
  <title
     id="title1404">AirPods - Disconnected</title>
  <defs
     id="defs835">
    <inkscape:path-effect
       effect="powerstroke"
       id="path-effect863"
       is_visible="true"
       lpeversion="1"
       offset_points="0,0.12596398"
       sort_points="true"
       interpolator_type="CubicBezierJohan"
       interpolator_beta="0.2"
       start_linecap_type="zerowidth"
       linejoin_type="extrp_arc"
       miter_limit="4"
       scale_width="1"
       end_linecap_type="zerowidth" />
  </defs>
  <sodipodi:namedview
     id="base"
     pagecolor="#ffffff"
     bordercolor="#666666"
     borderopacity="1.0"
     inkscape:pageopacity="0.0"
     inkscape:pageshadow="2"
     inkscape:zoom="0.13854833"
     inkscape:cx="314.06435"
     inkscape:cy="256"
     inkscape:document-units="px"
     inkscape:current-layer="layer1"
     inkscape:document-rotation="0"
     showgrid="false"
     units="px"
     inkscape:window-width="1920"
     inkscape:window-height="1015"
     inkscape:window-x="0"
     inkscape:window-y="32"
     inkscape:window-maximized="1" />
  <metadata
     id="metadata838">
    <rdf:RDF>
      <cc:Work
         rdf:about="">
        <dc:format>image/svg+xml</dc:format>
        <dc:type
           rdf:resource="http://purl.org/dc/dcmitype/StillImage" />
        <dc:title>AirPods - Disconnected</dc:title>
        <cc:license
           rdf:resource="http://creativecommons.org/licenses/by-nc-sa/4.0/" />
        <dc:creator>
          <cc:Agent>
            <dc:title>Fernando Casas Schössow</dc:title>
          </cc:Agent>
        </dc:creator>
        <dc:publisher>
          <cc:Agent>
            <dc:title>Fernando Casas Schössow</dc:title>
          </cc:Agent>
        </dc:publisher>
        <dc:date>07/05/2021</dc:date>
      </cc:Work>
      <cc:License
         rdf:about="http://creativecommons.org/licenses/by-nc-sa/4.0/">
        <cc:permits
           rdf:resource="http://creativecommons.org/ns#Reproduction" />
        <cc:permits
           rdf:resource="http://creativecommons.org/ns#Distribution" />
        <cc:requires
           rdf:resource="http://creativecommons.org/ns#Notice" />
        <cc:requires
           rdf:resource="http://creativecommons.org/ns#Attribution" />
        <cc:prohibits
           rdf:resource="http://creativecommons.org/ns#CommercialUse" />
        <cc:permits
           rdf:resource="http://creativecommons.org/ns#DerivativeWorks" />
        <cc:requires
           rdf:resource="http://creativecommons.org/ns#ShareAlike" />
      </cc:License>
    </rdf:RDF>
  </metadata>
  <g
     inkscape:label="Layer 1"
     inkscape:groupmode="layer"
     id="layer1">
    <g
       id="g978">
      <path
         id="rect1424"
         style="opacity:0.5;fill:#666666;fill-opacity:1;fill-rule:evenodd;stroke-width:1.13861"
         d="M 300.88477 205.34766 L 300.88477 263.23047 C 324.62282 287.01348 346.40473 308.83404 369.20117 331.67188 L 369.20117 236.26172 A 113.86102 102.47493 0 0 1 308.30859 205.34766 L 300.88477 205.34766 z M 300.88477 359.5918 L 300.88477 421.68359 L 363.08984 421.68359 C 343.70584 402.33202 322.03417 380.70211 300.88477 359.5918 z "
         transform="scale(0.26458333)" />
      <path
         id="rect1426"
         style="opacity:0.5;fill:#666666;fill-opacity:1;fill-rule:evenodd;stroke-width:0.301257"
         d="m 79.614376,117.5873 v 6.02513 c -0.003,3.31076 2.714388,6.03344 6.025146,6.03339 l 6.025145,-1.1e-4 c 3.310758,-5e-5 6.025147,-2.72252 6.025147,-6.03328 v -6.02513 z" />
      <path
         id="path1428-3"
         style="opacity:0.5;fill:#666666;fill-opacity:1;stroke-width:2.79289;stroke-linecap:round;stroke-linejoin:round"
         d="M 103.66401,5.8208333 A 30.125728,27.113158 0 0 0 73.589355,32.933907 30.125728,27.113158 0 0 0 103.71465,60.04698 30.125728,27.113158 0 0 0 127.52921,49.539096 V 16.328719 a 30.125728,27.113158 0 0 0 -23.81456,-10.5078857 30.125728,27.113158 0 0 0 -0.0506,0 z M 117.27144,20.88348 c 2.50345,0 4.51911,2.015655 4.51911,4.519104 v 15.062645 c 0,2.50345 -2.01566,4.519104 -4.51911,4.519104 -2.50345,0 -4.51858,-2.015654 -4.51858,-4.519104 V 25.402584 c 0,-2.503449 2.01513,-4.519105 4.51858,-4.519104 z m -25.606704,9.037691 h 6.024957 c 1.668965,0 3.012737,1.343771 3.012737,3.012736 0,1.668965 -1.343772,3.012736 -3.012737,3.012736 h -6.024957 c -1.668965,0 -3.012736,-1.343771 -3.012736,-3.012736 0,-1.668965 1.343771,-3.012736 3.012736,-3.012736 z" />
      <path
         id="rect1424-9"
         style="opacity:0.5;fill:#666666;fill-opacity:1;fill-rule:evenodd;stroke-width:1.13861"
         d="M 169.29297 228.23633 A 113.86102 102.47493 0 0 1 142.79883 236.26172 L 142.79883 421.68359 L 211.11523 421.68359 L 211.11523 269.98438 C 196.70942 255.60555 183.17169 242.09006 169.29297 228.23633 z "
         transform="scale(0.26458333)" />
      <path
         id="rect1426-1"
         style="opacity:0.5;fill:#666666;fill-opacity:1;fill-rule:evenodd;stroke-width:0.301257"
         d="m 55.852337,117.58732 v 6.02513 c 0.003,3.31076 -2.714389,6.03344 -6.025147,6.03339 l -6.025145,-1.1e-4 c -3.310758,-5e-5 -6.025147,-2.72252 -6.025147,-6.03328 v -6.02513 z" />
      <path
         id="path1428-3-2"
         style="opacity:0.5;fill:#666666;fill-opacity:1;stroke-width:10.5558;stroke-linecap:round;stroke-linejoin:round"
         d="M 120.00781 22 A 113.86102 102.47493 0 0 0 70.300781 32.28125 C 93.963222 55.962729 118.04801 80.067852 151.01562 113.08984 L 165.55078 113.08984 C 171.85868 113.08984 176.9375 118.16671 176.9375 124.47461 C 176.9375 128.4476 174.92118 131.93086 171.85352 133.9668 C 186.12454 148.26244 201.50325 163.66898 216.57227 178.76562 A 113.86102 102.47493 0 0 0 233.86719 124.47461 A 113.86102 102.47493 0 0 0 120.19922 22 A 113.86102 102.47493 0 0 0 120.00781 22 z M 30 89.136719 L 30 187.23438 A 113.86102 102.47493 0 0 0 120.00781 226.94922 A 113.86102 102.47493 0 0 0 161.08398 220.04492 C 132.53814 191.54987 109.1825 168.22565 85.847656 144.92188 L 85.847656 152.93945 C 85.847656 162.40131 78.231382 170.01953 68.769531 170.01953 C 59.307677 170.01953 51.689453 162.40131 51.689453 152.93945 L 51.689453 110.80273 C 45.231046 104.34945 35.384575 94.520228 30 89.136719 z "
         transform="scale(0.26458333)" />
      <path
         style="color:#000000;font-style:normal;font-variant:normal;font-weight:normal;font-stretch:normal;font-size:medium;line-height:normal;font-family:sans-serif;font-variant-ligatures:normal;font-variant-position:normal;font-variant-caps:normal;font-variant-numeric:normal;font-variant-alternates:normal;font-variant-east-asian:normal;font-feature-settings:normal;font-variation-settings:normal;text-indent:0;text-align:start;text-decoration:none;text-decoration-line:none;text-decoration-style:solid;text-decoration-color:#000000;letter-spacing:normal;word-spacing:normal;text-transform:none;writing-mode:lr-tb;direction:ltr;text-orientation:mixed;dominant-baseline:auto;baseline-shift:baseline;text-anchor:start;white-space:normal;shape-padding:0;shape-margin:0;inline-size:0;clip-rule:nonzero;display:inline;overflow:visible;visibility:visible;opacity:0.5;isolation:auto;mix-blend-mode:normal;color-interpolation:sRGB;color-interpolation-filters:linearRGB;solid-color:#000000;solid-opacity:1;vector-effect:none;fill:#666666;fill-opacity:1;fill-rule:nonzero;stroke:none;stroke-width:1;stroke-linecap:square;stroke-linejoin:miter;stroke-miterlimit:4;stroke-dasharray:none;stroke-dashoffset:0;stroke-opacity:1;color-rendering:auto;image-rendering:auto;shape-rendering:auto;text-rendering:auto;enable-background:accumulate;stop-color:#000000"
         d="m 11.663702,1.6020521 -5.0390795,5.03713 -5.03714,5.0390889 4.94925,4.94924 C 30.020502,40.111291 100.52193,110.43493 123.98069,133.89369 l 9.89849,-9.89849 C 110.42042,100.53643 40.096732,30.035071 16.612952,6.5512921 Z"
         id="path861-3-5" />
    </g>
  </g>
</svg>
