<?xml version="1.0" encoding="UTF-8" standalone="no"?>
<svg
   xmlns:dc="http://purl.org/dc/elements/1.1/"
   xmlns:cc="http://creativecommons.org/ns#"
   xmlns:rdf="http://www.w3.org/1999/02/22-rdf-syntax-ns#"
   xmlns:svg="http://www.w3.org/2000/svg"
   xmlns="http://www.w3.org/2000/svg"
   xmlns:sodipodi="http://sodipodi.sourceforge.net/DTD/sodipodi-0.dtd"
   xmlns:inkscape="http://www.inkscape.org/namespaces/inkscape"
   width="512"
   height="512"
   viewBox="0 0 135.46666 135.46667"
   version="1.1"
   id="svg841"
   inkscape:version="1.0.2 (e86c870879, 2021-01-15)"
   sodipodi:docname="airpods-right-symbolic.svg">
  <title
     id="title1404">AirPods - Right</title>
  <defs
     id="defs835" />
  <sodipodi:namedview
     id="base"
     pagecolor="#ffffff"
     bordercolor="#666666"
     borderopacity="1.0"
     inkscape:pageopacity="0.0"
     inkscape:pageshadow="2"
     inkscape:zoom="1.0797765"
     inkscape:cx="237.77636"
     inkscape:cy="263.71279"
     inkscape:document-units="px"
     inkscape:current-layer="layer1"
     inkscape:document-rotation="0"
     showgrid="false"
     units="px"
     inkscape:window-width="1254"
     inkscape:window-height="801"
     inkscape:window-x="666"
     inkscape:window-y="133"
     inkscape:window-maximized="0" />
  <metadata
     id="metadata838">
    <rdf:RDF>
      <cc:Work
         rdf:about="">
        <dc:format>image/svg+xml</dc:format>
        <dc:type
           rdf:resource="http://purl.org/dc/dcmitype/StillImage" />
        <dc:title>AirPods - Right</dc:title>
        <cc:license
           rdf:resource="http://creativecommons.org/licenses/by-nc-sa/4.0/" />
        <dc:creator>
          <cc:Agent>
            <dc:title>Fernando Casas Schössow</dc:title>
          </cc:Agent>
        </dc:creator>
        <dc:publisher>
          <cc:Agent>
            <dc:title>Fernando Casas Schössow</dc:title>
          </cc:Agent>
        </dc:publisher>
        <dc:date>07/05/2021</dc:date>
      </cc:Work>
      <cc:License
         rdf:about="http://creativecommons.org/licenses/by-nc-sa/4.0/">
        <cc:permits
           rdf:resource="http://creativecommons.org/ns#Reproduction" />
        <cc:permits
           rdf:resource="http://creativecommons.org/ns#Distribution" />
        <cc:requires
           rdf:resource="http://creativecommons.org/ns#Notice" />
        <cc:requires
           rdf:resource="http://creativecommons.org/ns#Attribution" />
        <cc:prohibits
           rdf:resource="http://creativecommons.org/ns#CommercialUse" />
        <cc:permits
           rdf:resource="http://creativecommons.org/ns#DerivativeWorks" />
        <cc:requires
           rdf:resource="http://creativecommons.org/ns#ShareAlike" />
      </cc:License>
    </rdf:RDF>
  </metadata>
  <g
     inkscape:label="Layer 1"
     inkscape:groupmode="layer"
     id="layer1">
    <g
       id="g847">
      <path
         id="rect1424-9"
         style="fill:#eeeeee;fill-opacity:1;fill-rule:evenodd;stroke-width:0.301257"
         d="M 46.783131,54.331504 V 111.57039 H 64.858569 V 62.510758 A 30.125729,27.113158 0 0 1 48.747187,54.331504 Z" />
      <path
         id="rect1426-1"
         style="fill:#eeeeee;fill-opacity:1;fill-rule:evenodd;stroke-width:0.301257"
         d="m 46.788426,117.58731 v 6.02514 c -0.003,3.31076 2.714389,6.03344 6.025147,6.03338 l 6.025145,-1e-4 c 3.310758,-6e-5 6.025147,-2.72252 6.025147,-6.03328 v -6.02514 z" />
      <path
         id="path1428-3-2"
         style="fill:#eeeeee;fill-opacity:1;stroke-width:10.5558;stroke-linecap:round;stroke-linejoin:round"
         d="M 267.73438 22 A 113.86102 102.47493 0 0 0 154.06641 124.47461 A 113.86102 102.47493 0 0 0 267.92578 226.94922 A 113.86102 102.47493 0 0 0 357.93359 187.23438 L 357.93359 61.714844 A 113.86102 102.47493 0 0 0 267.92578 22 A 113.86102 102.47493 0 0 0 267.73438 22 z M 319.16406 78.929688 C 328.62591 78.929688 336.24414 86.547913 336.24414 96.009766 L 336.24414 152.93945 C 336.24414 162.40131 328.62591 170.01953 319.16406 170.01953 C 309.70221 170.01953 302.08594 162.40131 302.08594 152.93945 L 302.08594 96.009766 C 302.08594 86.547913 309.70221 78.929687 319.16406 78.929688 z M 222.38281 113.08984 L 245.1543 113.08984 C 251.4622 113.08984 256.54102 118.16671 256.54102 124.47461 C 256.54102 130.78251 251.4622 135.86133 245.1543 135.86133 L 222.38281 135.86133 C 216.07491 135.86133 210.99609 130.78251 210.99609 124.47461 C 210.99609 118.16671 216.07491 113.08984 222.38281 113.08984 z "
         transform="scale(0.26458333)" />
    </g>
  </g>
</svg>
